<?xml version="1.0" standalone="no"?>
<!DOCTYPE svg PUBLIC "-//W3C//DTD SVG 1.1//EN"
"http://www.w3.org/Graphics/SVG/1.1/DTD/svg11.dtd">
<svg width="1896" height="1318" viewBox="0 0 1896 1318" version="1.1"
xmlns="http://www.w3.org/2000/svg"
xmlns:xlink="http://www.w3.org/1999/xlink">
<g fill-rule="evenodd"><path d="M 1569,572 L 1569,540 L 1675,540 L 1675,572 L 1569,572 z " style="fill-opacity:1.000000;fill:rgb(167,241,217);stroke:rgb(0,0,0);stroke-width:2"/></g>
<g fill-rule="evenodd"><path d="M 1569,623 L 1569,591 L 1675,591 L 1675,623 L 1569,623 z " style="fill-opacity:1.000000;fill:rgb(42,130,200);stroke:rgb(0,0,0);stroke-width:2"/></g>
<g fill-rule="evenodd"><path d="M 1569,674 L 1569,642 L 1675,642 L 1675,674 L 1569,674 z " style="fill-opacity:1.000000;fill:rgb(216,254,67);stroke:rgb(0,0,0);stroke-width:2"/></g>
<g fill-rule="evenodd"><path d="M 975,0 L 1492,0 L 1495,0 L 1497,1 L 1500,2 L 1502,4 L 1711,212 L 1712,215 L 1714,217 L 1715,220 L 1715,222 L 1715,318 L 1776,318 L 1777,314 L 1782,307 L 1787,302 L 1794,297 L 1801,294 L 1809,292 L 1856,292 L 1864,293 L 1872,295 L 1879,299 L 1885,304 L 1889,311 L 1893,318 L 1895,326 L 1895,333 L 1894,341 L 1891,349 L 1887,356 L 1882,361 L 1875,366 L 1868,369 L 1860,371 L 1848,371 L 1848,843 L 1856,843 L 1864,844 L 1872,846 L 1879,850 L 1885,855 L 1889,862 L 1893,869 L 1895,876 L 1895,884 L 1894,892 L 1891,900 L 1887,907 L 1882,912 L 1875,917 L 1868,920 L 1860,922 L 1813,922 L 1805,921 L 1797,919 L 1790,915 L 1784,910 L 1779,903 L 1776,896 L 1701,896 L 1698,896 L 1695,895 L 1693,894 L 1691,892 L 1644,845 L 1642,847 L 1636,850 L 1636,980 L 1635,983 L 1635,985 L 1633,988 L 1632,990 L 1485,1137 L 1483,1138 L 1480,1140 L 1478,1140 L 1475,1141 L 1290,1141 L 1287,1140 L 1285,1140 L 1282,1138 L 1280,1137 L 1179,1036 L 1178,1033 L 1176,1031 L 1176,1029 L 1175,1026 L 1175,920 L 782,1313 L 780,1315 L 778,1316 L 775,1317 L 772,1318 L 357,1318 L 355,1317 L 352,1316 L 350,1315 L 348,1313 L 70,1036 L 68,1034 L 67,1031 L 66,1029 L 66,1026 L 66,788 L 64,787 L 48,782 L 34,775 L 22,764 L 12,751 L 5,737 L 1,721 L 0,705 L 2,689 L 8,674 L 16,660 L 28,648 L 41,639 L 56,633 L 72,629 L 80,629 L 96,631 L 111,635 L 125,643 L 138,654 L 147,667 L 155,681 L 158,695 L 386,695 L 389,696 L 391,696 L 394,698 L 396,699 L 451,755 L 462,750 L 474,748 L 485,748 L 496,750 L 501,752 L 655,599 L 657,598 L 659,596 L 662,596 L 664,595 L 751,595 L 751,583 L 834,583 L 834,635 L 751,635 L 751,623 L 670,623 L 523,770 L 530,780 L 533,791 L 535,803 L 533,814 L 530,825 L 524,835 L 516,844 L 507,850 L 496,855 L 485,857 L 474,857 L 462,855 L 452,850 L 443,844 L 435,835 L 429,825 L 426,814 L 424,803 L 426,791 L 429,780 L 432,775 L 380,723 L 158,723 L 157,729 L 151,744 L 143,758 L 132,770 L 118,779 L 104,785 L 93,787 L 93,1020 L 363,1290 L 767,1290 L 1213,844 L 1213,753 L 1323,753 L 1323,863 L 1232,863 L 1203,893 L 1203,1020 L 1296,1113 L 1469,1113 L 1608,974 L 1608,850 L 1605,849 L 1599,845 L 1594,840 L 1589,834 L 1586,827 L 1585,819 L 1585,792 L 1585,784 L 1588,777 L 1591,771 L 1596,765 L 1602,760 L 1608,757 L 1608,725 L 1569,725 L 1569,694 L 1675,694 L 1675,725 L 1636,725 L 1636,757 L 1638,758 L 1645,762 L 1650,768 L 1655,774 L 1658,781 L 1659,788 L 1659,816 L 1659,821 L 1706,869 L 1776,869 L 1777,865 L 1782,858 L 1787,853 L 1794,848 L 1801,845 L 1809,843 L 1821,843 L 1821,371 L 1813,371 L 1805,370 L 1797,368 L 1790,364 L 1784,359 L 1779,352 L 1776,345 L 1706,345 L 1659,393 L 1659,395 L 1659,422 L 1659,430 L 1656,437 L 1653,443 L 1648,449 L 1642,454 L 1635,457 L 1628,459 L 1620,459 L 1613,458 L 1605,456 L 1599,452 L 1594,446 L 1589,440 L 1586,433 L 1585,426 L 1585,398 L 1585,391 L 1588,384 L 1591,377 L 1596,371 L 1602,367 L 1609,363 L 1616,361 L 1624,361 L 1631,362 L 1638,365 L 1644,368 L 1687,325 L 1687,228 L 1486,27 L 981,27 L 844,164 L 851,177 L 856,193 L 858,209 L 856,226 L 851,241 L 843,255 L 832,268 L 819,277 L 804,284 L 788,287 L 771,287 L 755,284 L 740,277 L 727,268 L 716,255 L 707,241 L 702,226 L 701,209 L 702,193 L 707,177 L 716,163 L 727,151 L 740,141 L 755,134 L 771,131 L 788,131 L 804,134 L 819,141 L 824,145 L 965,4 L 968,2 L 970,1 L 973,0 L 975,0 z " style="fill-opacity:1.000000;fill:rgb(77,152,85);stroke:rgb(0,0,0);stroke-width:2"/></g>
<g fill-rule="evenodd"><path d="M 980,509 L 1008,509 L 1008,560 L 924,560 L 924,509 L 952,509 L 952,255 L 952,252 L 953,249 L 954,247 L 956,245 L 1139,62 L 1141,60 L 1144,59 L 1146,58 L 1149,57 L 1407,57 L 1410,58 L 1412,59 L 1415,60 L 1417,62 L 1519,164 L 1521,167 L 1522,170 L 1522,172 L 1522,491 L 1569,491 L 1569,489 L 1675,489 L 1675,520 L 1569,520 L 1569,518 L 1504,518 L 1501,518 L 1498,517 L 1496,516 L 1494,514 L 1408,428 L 1321,428 L 1318,437 L 1315,442 L 1389,516 L 1391,518 L 1392,520 L 1393,523 L 1393,525 L 1393,932 L 1403,934 L 1418,941 L 1432,950 L 1443,963 L 1451,977 L 1456,992 L 1458,1009 L 1456,1025 L 1451,1041 L 1443,1055 L 1432,1067 L 1418,1077 L 1403,1084 L 1387,1087 L 1371,1087 L 1355,1084 L 1340,1077 L 1326,1067 L 1315,1055 L 1307,1041 L 1302,1025 L 1300,1009 L 1302,992 L 1307,977 L 1315,963 L 1326,950 L 1340,941 L 1355,934 L 1365,932 L 1365,531 L 1296,462 L 1285,467 L 1274,469 L 1262,469 L 1251,467 L 1241,462 L 1231,455 L 1224,447 L 1218,437 L 1214,426 L 1213,414 L 1214,403 L 1218,392 L 1224,382 L 1231,373 L 1241,367 L 1251,362 L 1262,360 L 1274,360 L 1285,362 L 1296,367 L 1305,373 L 1313,382 L 1318,392 L 1321,401 L 1413,401 L 1415,401 L 1418,402 L 1421,403 L 1423,405 L 1494,476 L 1494,178 L 1401,85 L 1155,85 L 980,260 L 980,509 z " style="fill-opacity:1.000000;fill:rgb(140,226,179);stroke:rgb(0,0,0);stroke-width:2"/></g>
<g fill-rule="evenodd"><path d="M 421,1030 L 654,797 L 656,795 L 658,794 L 661,793 L 663,793 L 757,793 L 779,771 L 779,709 L 751,709 L 751,658 L 834,658 L 834,709 L 806,709 L 806,777 L 806,779 L 805,782 L 804,784 L 802,786 L 772,817 L 770,818 L 768,820 L 765,820 L 762,821 L 669,821 L 458,1032 L 458,1188 L 301,1188 L 301,1030 L 421,1030 z " style="fill-opacity:1.000000;fill:rgb(71,23,17);stroke:rgb(0,0,0);stroke-width:2"/></g>
<g fill-rule="evenodd"><path d="M 715,1054 L 707,1041 L 702,1025 L 701,1009 L 702,992 L 707,977 L 716,963 L 727,950 L 740,941 L 755,934 L 771,931 L 788,931 L 804,934 L 819,941 L 832,950 L 843,963 L 851,977 L 856,992 L 858,1009 L 856,1025 L 851,1041 L 843,1055 L 832,1067 L 819,1077 L 804,1084 L 788,1087 L 771,1087 L 755,1084 L 740,1077 L 735,1073 L 689,1119 L 687,1120 L 685,1122 L 682,1122 L 679,1123 L 657,1123 L 656,1125 L 651,1141 L 643,1155 L 632,1167 L 619,1177 L 604,1184 L 588,1187 L 571,1187 L 555,1184 L 540,1177 L 527,1167 L 516,1155 L 507,1141 L 502,1125 L 501,1109 L 502,1092 L 507,1077 L 516,1063 L 527,1050 L 540,1041 L 555,1034 L 571,1031 L 588,1031 L 604,1034 L 619,1041 L 632,1050 L 643,1063 L 651,1077 L 656,1092 L 657,1095 L 674,1095 L 715,1054 z " style="fill-opacity:1.000000;fill:rgb(152,84,47);stroke:rgb(0,0,0);stroke-width:2"/></g>
<g fill-rule="evenodd"><path d="M 0,589 L 0,429 L 140,429 L 170,399 L 172,398 L 174,396 L 177,396 L 180,395 L 424,395 L 424,354 L 535,354 L 535,395 L 579,395 L 582,396 L 584,396 L 587,398 L 710,520 L 751,520 L 751,509 L 834,509 L 834,560 L 751,560 L 751,548 L 705,548 L 702,548 L 699,547 L 697,546 L 695,544 L 574,423 L 535,423 L 535,464 L 424,464 L 424,423 L 185,423 L 160,449 L 160,589 L 0,589 z " style="fill-opacity:1.000000;fill:rgb(17,45,5);stroke:rgb(0,0,0);stroke-width:2"/></g>
<g fill-rule="evenodd"><path d="M 1008,698 L 1008,709 L 924,709 L 924,658 L 1008,658 L 1008,670 L 1080,670 L 1147,602 L 1147,318 L 1148,315 L 1148,313 L 1150,310 L 1151,308 L 1260,199 L 1262,198 L 1265,196 L 1267,196 L 1270,195 L 1302,195 L 1302,193 L 1307,177 L 1315,163 L 1326,151 L 1340,141 L 1355,134 L 1371,131 L 1387,131 L 1403,134 L 1418,141 L 1432,151 L 1443,163 L 1451,177 L 1456,193 L 1458,209 L 1456,226 L 1451,241 L 1443,255 L 1432,268 L 1418,277 L 1403,284 L 1387,287 L 1371,287 L 1355,284 L 1340,277 L 1326,268 L 1315,255 L 1307,241 L 1302,226 L 1302,223 L 1276,223 L 1175,324 L 1175,608 L 1175,611 L 1174,613 L 1173,616 L 1171,618 L 1095,694 L 1093,695 L 1091,696 L 1088,697 L 1085,698 L 1008,698 z " style="fill-opacity:1.000000;fill:rgb(88,245,107);stroke:rgb(0,0,0);stroke-width:2"/></g>
</svg>
