<?xml version="1.0" standalone="no"?>
<!DOCTYPE svg PUBLIC "-//W3C//DTD SVG 1.1//EN"
"http://www.w3.org/Graphics/SVG/1.1/DTD/svg11.dtd">
<svg width="2216" height="1507" viewBox="0 0 2216 1507" version="1.1"
xmlns="http://www.w3.org/2000/svg"
xmlns:xlink="http://www.w3.org/1999/xlink">
<g fill-rule="evenodd"><path d="M 431,1500 L 431,1500 L 424,1497 L 417,1494 L 411,1489 L 18,1096 L 13,1090 L 13,1090 L 9,1083 L 7,1075 L 7,1075 L 6,1067 L 6,439 L 7,431 L 7,430 L 9,423 L 12,417 L 13,416 L 18,410 L 411,17 L 414,14 L 418,11 L 418,11 L 425,8 L 432,6 L 432,6 L 439,5 L 1776,5 L 1784,6 L 1784,6 L 1791,9 L 1798,12 L 1804,17 L 2197,410 L 2202,416 L 2203,416 L 2206,423 L 2208,431 L 2208,431 L 2209,439 L 2209,988 L 2208,996 L 2208,997 L 2206,1004 L 2202,1011 L 2198,1017 L 1726,1489 L 1720,1494 L 1713,1497 L 1713,1497 L 1705,1500 L 1698,1500 L 439,1501 L 431,1500 z " style="fill-opacity:1.000000;fill:rgb(167,241,217);stroke:rgb(0,0,0);stroke-width:2"/></g>
</svg>
