<?xml version="1.0" standalone="no"?>
<!DOCTYPE svg PUBLIC "-//W3C//DTD SVG 1.1//EN"
"http://www.w3.org/Graphics/SVG/1.1/DTD/svg11.dtd">
<svg width="1896" height="1318" viewBox="0 0 1896 1318" version="1.1"
xmlns="http://www.w3.org/2000/svg"
xmlns:xlink="http://www.w3.org/1999/xlink">
<g fill-rule="evenodd"><path d="M 1507,581 L 1516,572 L 1547,540 L 1555,534 L 1562,530 L 1569,530 L 1675,530 L 1748,530 L 1748,540 L 1748,572 L 1748,581 L 1675,581 L 1569,581 L 1507,581 z " style="fill-opacity:1.000000;fill:rgb(167,241,217);stroke:rgb(0,0,0);stroke-width:2"/></g>
<g fill-rule="evenodd"><path d="M 1481,633 L 1481,623 L 1481,604 L 1494,593 L 1496,591 L 1496,590 L 1504,584 L 1507,581 L 1569,581 L 1675,581 L 1748,581 L 1748,591 L 1748,623 L 1748,633 L 1675,633 L 1569,633 L 1481,633 z " style="fill-opacity:1.000000;fill:rgb(42,130,200);stroke:rgb(0,0,0);stroke-width:2"/></g>
<g fill-rule="evenodd"><path d="M 1481,684 L 1481,674 L 1481,642 L 1481,633 L 1569,633 L 1675,633 L 1748,633 L 1748,642 L 1748,674 L 1748,684 L 1675,684 L 1569,684 L 1481,684 z " style="fill-opacity:1.000000;fill:rgb(216,254,67);stroke:rgb(0,0,0);stroke-width:2"/></g>
<g fill-rule="evenodd"><path d="M 0,625 L 2,624 L 9,622 L 25,617 L 31,615 L 47,612 L 51,611 L 67,609 L 70,609 L 79,609 L 82,609 L 98,610 L 102,610 L 118,613 L 123,614 L 139,618 L 145,620 L 160,625 L 162,626 L 170,629 L 190,634 L 199,635 L 215,627 L 232,617 L 249,604 L 266,589 L 296,559 L 327,559 L 356,570 L 386,576 L 398,579 L 401,579 L 424,583 L 425,583 L 428,583 L 454,589 L 456,589 L 474,595 L 535,570 L 553,561 L 569,552 L 607,552 L 616,552 L 619,552 L 633,553 L 636,554 L 647,556 L 650,557 L 658,559 L 661,560 L 664,561 L 674,565 L 676,566 L 679,567 L 684,569 L 687,570 L 692,571 L 695,571 L 700,571 L 702,572 L 705,572 L 731,572 L 751,572 L 834,572 L 879,572 L 882,583 L 887,596 L 893,609 L 887,622 L 882,635 L 879,646 L 834,646 L 751,646 L 731,646 L 716,658 L 694,680 L 682,709 L 678,719 L 663,725 L 657,728 L 654,729 L 643,735 L 641,737 L 631,743 L 629,745 L 620,752 L 618,754 L 614,758 L 589,783 L 588,785 L 584,797 L 579,807 L 574,818 L 570,826 L 564,836 L 560,842 L 553,852 L 548,857 L 540,865 L 535,870 L 527,877 L 521,882 L 511,888 L 504,892 L 494,898 L 485,902 L 474,907 L 462,911 L 450,915 L 434,918 L 420,921 L 398,924 L 383,925 L 377,925 L 360,918 L 348,913 L 322,900 L 311,893 L 301,887 L 284,877 L 251,880 L 236,904 L 223,927 L 212,951 L 205,974 L 210,1004 L 219,1030 L 284,1188 L 291,1198 L 301,1204 L 384,1239 L 458,1239 L 482,1236 L 505,1228 L 516,1231 L 532,1234 L 544,1236 L 560,1238 L 571,1239 L 588,1239 L 598,1238 L 615,1236 L 626,1234 L 643,1231 L 655,1227 L 672,1222 L 687,1216 L 703,1209 L 716,1203 L 727,1200 L 729,1200 L 729,1200 L 743,1189 L 745,1187 L 751,1181 L 758,1174 L 771,1169 L 788,1162 L 802,1156 L 817,1147 L 829,1140 L 843,1131 L 852,1123 L 865,1113 L 873,1105 L 885,1093 L 892,1084 L 902,1070 L 910,1060 L 919,1045 L 926,1032 L 933,1017 L 940,1000 L 946,983 L 952,961 L 957,943 L 962,913 L 965,892 L 968,867 L 1008,850 L 1035,837 L 1060,821 L 1085,811 L 1097,806 L 1099,805 L 1108,800 L 1118,788 L 1120,785 L 1132,767 L 1133,764 L 1139,753 L 1141,750 L 1142,748 L 1144,743 L 1157,722 L 1172,705 L 1191,691 L 1213,679 L 1227,674 L 1235,670 L 1238,669 L 1255,660 L 1257,658 L 1265,653 L 1323,711 L 1332,721 L 1339,732 L 1343,742 L 1344,753 L 1344,863 L 1343,873 L 1339,883 L 1333,893 L 1325,903 L 1323,904 L 1323,904 L 1314,906 L 1298,911 L 1288,915 L 1271,923 L 1265,925 L 1263,932 L 1259,949 L 1256,960 L 1254,977 L 1253,987 L 1252,1000 L 1253,1004 L 1257,1013 L 1265,1029 L 1269,1036 L 1277,1051 L 1281,1056 L 1291,1069 L 1295,1073 L 1306,1085 L 1307,1086 L 1312,1088 L 1328,1093 L 1332,1094 L 1349,1098 L 1352,1098 L 1368,1100 L 1371,1100 L 1387,1100 L 1390,1100 L 1406,1098 L 1410,1098 L 1426,1094 L 1430,1093 L 1447,1088 L 1452,1086 L 1457,1083 L 1465,1075 L 1469,1070 L 1479,1057 L 1483,1051 L 1492,1037 L 1496,1029 L 1504,1014 L 1508,1004 L 1514,986 L 1518,972 L 1522,954 L 1525,940 L 1524,935 L 1519,918 L 1513,899 L 1510,892 L 1509,890 L 1505,884 L 1497,873 L 1494,870 L 1494,866 L 1491,846 L 1490,839 L 1489,820 L 1489,793 L 1489,782 L 1489,779 L 1483,752 L 1481,725 L 1481,694 L 1481,684 L 1569,684 L 1675,684 L 1748,684 L 1748,674 L 1748,642 L 1748,633 L 1748,623 L 1748,591 L 1748,581 L 1748,572 L 1748,540 L 1748,530 L 1748,520 L 1748,489 L 1746,464 L 1739,439 L 1713,446 L 1700,450 L 1688,455 L 1680,458 L 1675,461 L 1674,461 L 1666,465 L 1661,467 L 1654,469 L 1650,470 L 1642,472 L 1639,473 L 1631,474 L 1628,474 L 1621,474 L 1618,474 L 1610,473 L 1607,473 L 1599,472 L 1596,471 L 1588,469 L 1584,467 L 1577,464 L 1571,462 L 1569,460 L 1564,458 L 1557,455 L 1557,454 L 1555,446 L 1554,440 L 1554,432 L 1553,426 L 1553,399 L 1553,395 L 1554,388 L 1554,381 L 1555,374 L 1557,367 L 1559,359 L 1561,351 L 1564,344 L 1568,335 L 1572,327 L 1578,317 L 1582,309 L 1591,296 L 1597,288 L 1604,280 L 1604,262 L 1567,172 L 1566,169 L 1565,167 L 1561,159 L 1560,157 L 1554,149 L 1552,146 L 1545,138 L 1471,64 L 1431,47 L 1429,46 L 1426,46 L 1423,44 L 1420,44 L 1417,43 L 1414,43 L 1411,42 L 1409,42 L 1407,42 L 1149,42 L 1148,42 L 1145,42 L 1142,43 L 1139,43 L 1136,44 L 1133,44 L 1130,46 L 1127,46 L 1125,47 L 1009,95 L 923,181 L 922,186 L 916,203 L 915,204 L 913,210 L 912,212 L 911,215 L 909,222 L 908,225 L 906,231 L 905,235 L 905,237 L 904,241 L 902,247 L 902,250 L 901,255 L 900,257 L 898,268 L 894,285 L 889,297 L 883,314 L 876,329 L 868,345 L 857,364 L 847,380 L 837,394 L 834,394 L 827,395 L 811,397 L 788,398 L 771,398 L 751,397 L 748,397 L 745,397 L 733,390 L 713,378 L 699,369 L 683,356 L 670,345 L 656,331 L 655,330 L 644,320 L 634,311 L 632,309 L 628,306 L 623,301 L 618,293 L 606,274 L 596,260 L 579,238 L 567,223 L 540,192 L 535,186 L 523,174 L 502,149 L 481,121 L 464,98 L 424,39 L 400,0 L 1693,0 L 1895,201 L 1895,1031 L 1609,1318 L 257,1318 L 0,1060 L 0,625 z " style="fill-opacity:1.000000;fill:rgb(77,152,85);stroke:rgb(0,0,0);stroke-width:2"/></g>
<g fill-rule="evenodd"><path d="M 893,609 L 887,596 L 882,583 L 879,572 L 879,560 L 879,509 L 879,451 L 862,423 L 837,394 L 847,380 L 857,364 L 868,345 L 876,329 L 883,314 L 889,297 L 894,285 L 898,268 L 900,257 L 901,255 L 902,250 L 902,247 L 904,241 L 905,237 L 905,235 L 906,231 L 908,225 L 909,222 L 911,215 L 912,212 L 913,210 L 915,204 L 916,203 L 922,186 L 923,181 L 1009,95 L 1125,47 L 1127,46 L 1130,46 L 1133,44 L 1136,44 L 1139,43 L 1142,43 L 1145,42 L 1148,42 L 1149,42 L 1407,42 L 1409,42 L 1411,42 L 1414,43 L 1417,43 L 1420,44 L 1423,44 L 1426,46 L 1429,46 L 1431,47 L 1471,64 L 1545,138 L 1552,146 L 1554,149 L 1560,157 L 1561,159 L 1565,167 L 1566,169 L 1567,172 L 1604,262 L 1604,280 L 1597,288 L 1591,296 L 1582,309 L 1578,317 L 1572,327 L 1568,335 L 1564,344 L 1561,351 L 1559,359 L 1557,367 L 1555,374 L 1554,381 L 1554,388 L 1553,395 L 1553,399 L 1553,426 L 1554,432 L 1554,440 L 1555,446 L 1557,454 L 1557,455 L 1564,458 L 1569,460 L 1571,462 L 1577,464 L 1584,467 L 1588,469 L 1596,471 L 1599,472 L 1607,473 L 1610,473 L 1618,474 L 1621,474 L 1628,474 L 1631,474 L 1639,473 L 1642,472 L 1650,470 L 1654,469 L 1661,467 L 1666,465 L 1674,461 L 1675,461 L 1680,458 L 1688,455 L 1700,450 L 1713,446 L 1739,439 L 1746,464 L 1748,489 L 1748,520 L 1748,530 L 1675,530 L 1569,530 L 1562,530 L 1555,534 L 1547,540 L 1516,572 L 1507,581 L 1504,584 L 1496,590 L 1496,591 L 1494,593 L 1481,604 L 1481,623 L 1481,633 L 1481,642 L 1481,674 L 1481,684 L 1481,694 L 1481,725 L 1483,752 L 1489,779 L 1489,782 L 1489,793 L 1489,820 L 1490,839 L 1491,846 L 1494,866 L 1494,870 L 1497,873 L 1505,884 L 1509,890 L 1510,892 L 1513,899 L 1519,918 L 1524,935 L 1525,940 L 1522,954 L 1518,972 L 1514,986 L 1508,1004 L 1504,1014 L 1496,1029 L 1492,1037 L 1483,1051 L 1479,1057 L 1469,1070 L 1465,1075 L 1457,1083 L 1452,1086 L 1447,1088 L 1430,1093 L 1426,1094 L 1410,1098 L 1406,1098 L 1390,1100 L 1387,1100 L 1371,1100 L 1368,1100 L 1352,1098 L 1349,1098 L 1332,1094 L 1328,1093 L 1312,1088 L 1307,1086 L 1306,1085 L 1295,1073 L 1291,1069 L 1281,1056 L 1277,1051 L 1269,1036 L 1265,1029 L 1257,1013 L 1253,1004 L 1252,1000 L 1253,987 L 1254,977 L 1256,960 L 1259,949 L 1263,932 L 1265,925 L 1271,923 L 1288,915 L 1298,911 L 1314,906 L 1323,904 L 1323,904 L 1325,903 L 1333,893 L 1339,883 L 1343,873 L 1344,863 L 1344,753 L 1343,742 L 1339,732 L 1332,721 L 1323,711 L 1265,653 L 1267,642 L 1268,639 L 1270,620 L 1270,617 L 1270,608 L 1270,570 L 1266,560 L 1262,557 L 1247,540 L 1238,528 L 1229,516 L 1222,505 L 1216,496 L 1210,484 L 1207,477 L 1203,465 L 1201,460 L 1198,448 L 1197,444 L 1195,432 L 1195,428 L 1194,416 L 1194,412 L 1195,401 L 1195,397 L 1197,385 L 1198,381 L 1201,369 L 1203,363 L 1207,352 L 1210,345 L 1213,340 L 1218,335 L 1224,330 L 1234,324 L 1242,319 L 1252,313 L 1262,309 L 1274,304 L 1279,302 L 1285,305 L 1285,305 L 1295,310 L 1296,311 L 1306,316 L 1310,318 L 1316,321 L 1319,323 L 1325,326 L 1334,331 L 1335,332 L 1344,336 L 1345,337 L 1355,343 L 1359,343 L 1371,344 L 1387,344 L 1399,343 L 1413,342 L 1416,342 L 1418,341 L 1420,341 L 1428,340 L 1431,340 L 1440,327 L 1446,316 L 1455,300 L 1458,292 L 1465,275 L 1467,269 L 1471,253 L 1472,248 L 1475,232 L 1475,228 L 1476,211 L 1476,207 L 1475,191 L 1475,187 L 1475,186 L 1466,172 L 1464,170 L 1454,156 L 1452,154 L 1441,142 L 1439,141 L 1427,130 L 1424,128 L 1410,119 L 1407,117 L 1392,108 L 1392,108 L 1387,108 L 1371,108 L 1366,108 L 1350,110 L 1344,111 L 1328,114 L 1322,116 L 1305,121 L 1297,124 L 1281,132 L 1270,137 L 1265,140 L 1262,140 L 1251,142 L 1248,142 L 1237,144 L 1234,145 L 1222,149 L 1219,150 L 1213,152 L 1187,163 L 1096,253 L 1091,259 L 1089,261 L 1079,273 L 1078,275 L 1069,289 L 1067,291 L 1065,296 L 1064,307 L 1064,310 L 1063,318 L 1063,446 L 1070,462 L 1074,477 L 1077,493 L 1077,509 L 1077,560 L 1077,573 L 1066,590 L 1053,606 L 1044,609 L 1008,609 L 924,609 L 893,609 z " style="fill-opacity:1.000000;fill:rgb(140,226,179);stroke:rgb(0,0,0);stroke-width:2"/></g>
<g fill-rule="evenodd"><path d="M 301,1204 L 291,1198 L 284,1188 L 219,1030 L 210,1004 L 205,974 L 212,951 L 223,927 L 236,904 L 251,880 L 284,877 L 301,887 L 311,893 L 322,900 L 348,913 L 360,918 L 377,925 L 383,925 L 398,924 L 420,921 L 434,918 L 450,915 L 462,911 L 474,907 L 485,902 L 494,898 L 504,892 L 511,888 L 521,882 L 527,877 L 535,870 L 540,865 L 548,857 L 553,852 L 560,842 L 564,836 L 570,826 L 574,818 L 579,807 L 584,797 L 588,785 L 589,783 L 614,758 L 618,754 L 620,752 L 629,745 L 631,743 L 641,737 L 643,735 L 654,729 L 657,728 L 663,725 L 678,719 L 682,709 L 694,680 L 716,658 L 731,646 L 751,646 L 834,646 L 879,646 L 879,658 L 879,709 L 879,767 L 884,777 L 889,785 L 891,788 L 903,809 L 905,812 L 924,843 L 926,847 L 928,849 L 926,849 L 903,853 L 890,855 L 887,855 L 880,856 L 873,857 L 855,860 L 835,863 L 822,866 L 818,867 L 814,868 L 811,869 L 800,871 L 798,871 L 795,872 L 788,873 L 784,874 L 781,874 L 771,875 L 770,875 L 768,876 L 762,876 L 760,876 L 743,878 L 731,880 L 714,883 L 701,887 L 697,888 L 687,896 L 677,906 L 666,918 L 657,929 L 647,942 L 638,954 L 632,964 L 618,968 L 600,973 L 588,977 L 571,984 L 562,988 L 547,997 L 540,1001 L 527,1010 L 521,1014 L 508,1025 L 504,1030 L 492,1042 L 490,1045 L 489,1047 L 485,1064 L 483,1069 L 481,1085 L 480,1090 L 479,1107 L 479,1111 L 480,1127 L 481,1132 L 483,1149 L 485,1154 L 489,1170 L 491,1177 L 495,1188 L 497,1194 L 500,1204 L 505,1226 L 505,1228 L 482,1236 L 458,1239 L 384,1239 L 301,1204 z " style="fill-opacity:1.000000;fill:rgb(71,23,17);stroke:rgb(0,0,0);stroke-width:2"/></g>
<g fill-rule="evenodd"><path d="M 479,1111 L 479,1107 L 480,1090 L 481,1085 L 483,1069 L 485,1064 L 489,1047 L 490,1045 L 492,1042 L 504,1030 L 508,1025 L 521,1014 L 527,1010 L 540,1001 L 547,997 L 562,988 L 571,984 L 588,977 L 600,973 L 618,968 L 632,964 L 638,954 L 647,942 L 657,929 L 666,918 L 677,906 L 687,896 L 697,888 L 701,887 L 714,883 L 731,880 L 743,878 L 760,876 L 762,876 L 768,876 L 770,875 L 771,875 L 781,874 L 784,874 L 788,873 L 795,872 L 798,871 L 800,871 L 811,869 L 814,868 L 818,867 L 822,866 L 835,863 L 855,860 L 873,857 L 880,856 L 887,855 L 890,855 L 903,853 L 926,849 L 928,849 L 939,854 L 956,861 L 968,867 L 965,892 L 962,913 L 957,943 L 952,961 L 946,983 L 940,1000 L 933,1017 L 926,1032 L 919,1045 L 910,1060 L 902,1070 L 892,1084 L 885,1093 L 873,1105 L 865,1113 L 852,1123 L 843,1131 L 829,1140 L 817,1147 L 802,1156 L 788,1162 L 771,1169 L 758,1174 L 751,1181 L 745,1187 L 743,1189 L 729,1200 L 729,1200 L 727,1200 L 716,1203 L 703,1209 L 687,1216 L 672,1222 L 655,1227 L 643,1231 L 626,1234 L 615,1236 L 598,1238 L 588,1239 L 571,1239 L 560,1238 L 544,1236 L 532,1234 L 516,1231 L 505,1228 L 505,1226 L 500,1204 L 497,1194 L 495,1188 L 491,1177 L 489,1170 L 485,1154 L 483,1149 L 481,1132 L 480,1127 L 479,1111 z " style="fill-opacity:1.000000;fill:rgb(152,84,47);stroke:rgb(0,0,0);stroke-width:2"/></g>
<g fill-rule="evenodd"><path d="M 0,251 L 251,0 L 400,0 L 424,39 L 464,98 L 481,121 L 502,149 L 523,174 L 535,186 L 540,192 L 567,223 L 579,238 L 596,260 L 606,274 L 618,293 L 623,301 L 628,306 L 632,309 L 634,311 L 644,320 L 655,330 L 656,331 L 670,345 L 683,356 L 699,369 L 713,378 L 733,390 L 745,397 L 748,397 L 751,397 L 771,398 L 788,398 L 811,397 L 827,395 L 834,394 L 837,394 L 862,423 L 879,451 L 879,509 L 879,560 L 879,572 L 834,572 L 751,572 L 731,572 L 705,572 L 702,572 L 700,571 L 695,571 L 692,571 L 687,570 L 684,569 L 679,567 L 676,566 L 674,565 L 664,561 L 661,560 L 658,559 L 650,557 L 647,556 L 636,554 L 633,553 L 619,552 L 616,552 L 607,552 L 569,552 L 553,561 L 535,570 L 474,595 L 456,589 L 454,589 L 428,583 L 425,583 L 424,583 L 401,579 L 398,579 L 386,576 L 356,570 L 327,559 L 296,559 L 266,589 L 249,604 L 232,617 L 215,627 L 199,635 L 190,634 L 170,629 L 162,626 L 160,625 L 145,620 L 139,618 L 123,614 L 118,613 L 102,610 L 98,610 L 82,609 L 79,609 L 70,609 L 67,609 L 51,611 L 47,612 L 31,615 L 25,617 L 9,622 L 2,624 L 0,625 L 0,251 z " style="fill-opacity:1.000000;fill:rgb(17,45,5);stroke:rgb(0,0,0);stroke-width:2"/></g>
<g fill-rule="evenodd"><path d="M 905,812 L 903,809 L 891,788 L 889,785 L 884,777 L 879,767 L 879,709 L 879,658 L 879,646 L 882,635 L 887,622 L 893,609 L 924,609 L 1008,609 L 1044,609 L 1053,606 L 1066,590 L 1077,573 L 1077,560 L 1077,509 L 1077,493 L 1074,477 L 1070,462 L 1063,446 L 1063,318 L 1064,310 L 1064,307 L 1065,296 L 1067,291 L 1069,289 L 1078,275 L 1079,273 L 1089,261 L 1091,259 L 1096,253 L 1187,163 L 1213,152 L 1219,150 L 1222,149 L 1234,145 L 1237,144 L 1248,142 L 1251,142 L 1262,140 L 1265,140 L 1270,137 L 1281,132 L 1297,124 L 1305,121 L 1322,116 L 1328,114 L 1344,111 L 1350,110 L 1366,108 L 1371,108 L 1387,108 L 1392,108 L 1392,108 L 1407,117 L 1410,119 L 1424,128 L 1427,130 L 1439,141 L 1441,142 L 1452,154 L 1454,156 L 1464,170 L 1466,172 L 1475,186 L 1475,187 L 1475,191 L 1476,207 L 1476,211 L 1475,228 L 1475,232 L 1472,248 L 1471,253 L 1467,269 L 1465,275 L 1458,292 L 1455,300 L 1446,316 L 1440,327 L 1431,340 L 1428,340 L 1420,341 L 1418,341 L 1416,342 L 1413,342 L 1399,343 L 1387,344 L 1371,344 L 1359,343 L 1355,343 L 1345,337 L 1344,336 L 1335,332 L 1334,331 L 1325,326 L 1319,323 L 1316,321 L 1310,318 L 1306,316 L 1296,311 L 1295,310 L 1285,305 L 1285,305 L 1279,302 L 1274,304 L 1262,309 L 1252,313 L 1242,319 L 1234,324 L 1224,330 L 1218,335 L 1213,340 L 1210,345 L 1207,352 L 1203,363 L 1201,369 L 1198,381 L 1197,385 L 1195,397 L 1195,401 L 1194,412 L 1194,416 L 1195,428 L 1195,432 L 1197,444 L 1198,448 L 1201,460 L 1203,465 L 1207,477 L 1210,484 L 1216,496 L 1222,505 L 1229,516 L 1238,528 L 1247,540 L 1262,557 L 1266,560 L 1270,570 L 1270,608 L 1270,617 L 1270,620 L 1268,639 L 1267,642 L 1265,653 L 1257,658 L 1255,660 L 1238,669 L 1235,670 L 1227,674 L 1213,679 L 1191,691 L 1172,705 L 1157,722 L 1144,743 L 1142,748 L 1141,750 L 1139,753 L 1133,764 L 1132,767 L 1120,785 L 1118,788 L 1108,800 L 1099,805 L 1097,806 L 1085,811 L 1060,821 L 1035,837 L 1008,850 L 968,867 L 956,861 L 939,854 L 928,849 L 926,847 L 924,843 L 905,812 z " style="fill-opacity:1.000000;fill:rgb(88,245,107);stroke:rgb(0,0,0);stroke-width:2"/></g>
</svg>
