<?xml version="1.0" standalone="no"?>
<!DOCTYPE svg PUBLIC "-//W3C//DTD SVG 1.1//EN"
"http://www.w3.org/Graphics/SVG/1.1/DTD/svg11.dtd">
<svg width="2125" height="1417" viewBox="0 0 2125 1417" version="1.1"
xmlns="http://www.w3.org/2000/svg"
xmlns:xlink="http://www.w3.org/1999/xlink">
<g fill-rule="evenodd"><path d="M 1596.94,634.416 L 1606,624.577 L 1637.48,593.095 L 1645.04,586.858 L 1652.6,583.258 L 1659.13,583.258 L 1765.37,583.258 L 1837.84,583.258 L 1838.18,593.095 L 1838.18,624.577 L 1837.84,634.416 L 1765.37,634.416 L 1659.13,634.416 L 1596.94,634.416 z " style="fill-opacity:1.000000;fill:rgb(167,241,217);stroke:rgb(0,0,0);stroke-width:2"/></g>
<g fill-rule="evenodd"><path d="M 1571.42,685.575 L 1571.15,675.735 L 1571.15,656.848 L 1583.86,646.093 L 1585.89,644.256 L 1586.84,643.4 L 1593.91,637.069 L 1596.94,634.416 L 1659.13,634.416 L 1765.37,634.416 L 1837.84,634.416 L 1838.18,644.254 L 1838.18,675.735 L 1837.84,685.575 L 1765.37,685.575 L 1659.13,685.575 L 1571.42,685.575 z " style="fill-opacity:1.000000;fill:rgb(42,130,200);stroke:rgb(0,0,0);stroke-width:2"/></g>
<g fill-rule="evenodd"><path d="M 1571.42,736.731 L 1571.15,726.893 L 1571.15,695.412 L 1571.42,685.575 L 1659.13,685.575 L 1765.37,685.575 L 1837.84,685.575 L 1838.18,695.412 L 1838.18,726.893 L 1837.84,736.731 L 1765.37,736.731 L 1659.13,736.731 L 1571.42,736.731 z " style="fill-opacity:1.000000;fill:rgb(216,254,67);stroke:rgb(0,0,0);stroke-width:2"/></g>
<g fill-rule="evenodd"><path d="M 456.173,0.166 L 1731.48,0.166 L 2125,393.684 L 2125,944.611 L 1652.78,1416.83 L 393.518,1416.83 L 0,1023.31 L 0,693.265 L 6.61694,692.879 L 38.794,689.775 L 63.1388,685.882 L 75.1812,683.044 L 90.0363,678.216 L 92.4812,677.167 L 99.318,674.628 L 115.495,669.552 L 120.91,668.147 L 137.091,664.82 L 141.622,664.125 L 157.803,662.479 L 160.882,662.283 L 168.982,662.077 L 172.026,662.115 L 188.205,662.937 L 192.469,663.371 L 208.649,665.85 L 213.563,666.863 L 229.742,671.051 L 235.793,672.956 L 249.962,678.204 L 251.993,678.924 L 260.431,681.788 L 280.62,686.62 L 289.108,687.944 L 305.864,680.443 L 322.621,670.298 L 339.377,657.508 L 356.135,642.073 L 386.121,612.087 L 417.023,612.087 L 446.589,622.7 L 476.156,629.529 L 487.72,631.46 L 490.389,631.889 L 513.126,635.418 L 514.722,635.66 L 515.825,635.824 L 539.58,640.561 L 542.281,641.237 L 564.627,647.908 L 624.907,622.94 L 643.016,614.46 L 659.741,604.592 L 697.255,604.592 L 706.023,604.804 L 709.659,604.984 L 723.377,606.307 L 726.703,606.801 L 737.175,608.866 L 740.227,609.63 L 748.433,612.107 L 751.248,613.114 L 754.729,614.454 L 763.934,618.268 L 766.839,619.389 L 769.538,620.353 L 774.835,621.964 L 777.536,622.642 L 782.478,623.627 L 785.178,624.027 L 789.892,624.491 L 792.591,624.625 L 794.906,624.681 L 820.892,624.681 L 841.342,624.681 L 924.768,624.681 L 969.629,624.681 L 972.736,636.485 L 977.012,649.275 L 983.113,662.066 L 977.012,674.854 L 972.736,687.642 L 969.627,699.448 L 924.768,699.448 L 841.342,699.448 L 820.892,699.448 L 805.923,711.255 L 784.131,733.047 L 771.967,762.411 L 768.226,772.406 L 753.729,778.412 L 747.306,781.256 L 744.713,782.484 L 733.45,788.495 L 731.063,789.924 L 721.286,796.451 L 719.095,798.079 L 710.497,805.131 L 708.494,806.944 L 704.5,810.747 L 678.978,836.269 L 678.216,838.486 L 673.958,850.514 L 669.872,860.41 L 664.612,871.437 L 660.472,879.073 L 654.283,889.174 L 650.043,895.351 L 642.97,904.567 L 638.516,909.785 L 630.586,918.143 L 625.688,922.789 L 616.904,930.291 L 611.267,934.613 L 601.613,941.248 L 594.779,945.432 L 584.221,951.164 L 575.571,955.28 L 564.057,960.05 L 552.662,964.068 L 540.096,967.79 L 524.543,971.494 L 510.799,974.041 L 488.878,976.88 L 473.781,978.069 L 467.745,978.475 L 449.902,971.384 L 438.385,966.257 L 412.631,953.089 L 401.114,946.44 L 391.157,940.449 L 374.333,929.919 L 341.458,933.478 L 325.893,956.879 L 312.967,980.278 L 302.682,1003.68 L 295.037,1027.08 L 300.641,1056.67 L 309.381,1083.13 L 374.581,1240.54 L 381.152,1250.54 L 391.157,1257.11 L 474.788,1291.75 L 548.564,1291.75 L 571.975,1289.08 L 595.388,1281.05 L 606.401,1283.93 L 622.854,1287.43 L 634.278,1289.24 L 650.729,1290.97 L 661.542,1291.54 L 677.994,1291.54 L 688.805,1290.97 L 705.255,1289.24 L 716.676,1287.43 L 733.133,1283.93 L 745.833,1280.52 L 762.285,1275.17 L 777.036,1269.49 L 793.489,1262.16 L 806.295,1255.85 L 817.138,1253.49 L 819.648,1252.86 L 819.802,1252.75 L 833.394,1241.6 L 835.399,1239.79 L 841.684,1233.8 L 848.353,1227.13 L 861.451,1222.28 L 877.895,1215.47 L 892.443,1208.55 L 907.514,1200.37 L 919.156,1193.24 L 932.942,1183.77 L 942.661,1176.32 L 955.204,1165.6 L 963.668,1157.57 L 974.991,1145.64 L 982.685,1136.63 L 992.784,1123.47 L 1000.05,1112.88 L 1008.89,1098.47 L 1015.9,1085.52 L 1023.41,1069.77 L 1030.23,1053.27 L 1036.31,1036.1 L 1042.73,1014.3 L 1047.23,995.543 L 1052.71,965.685 L 1055.41,945.132 L 1057.88,919.668 L 1097.92,903.086 L 1125.51,889.926 L 1150.66,874.323 L 1175.73,863.938 L 1186.4,859.21 L 1188.99,857.985 L 1198.56,853.181 L 1206.53,843 L 1208.53,840.301 L 1220.18,822.931 L 1221.8,820.23 L 1229.54,805.879 L 1229.94,805.059 L 1231.25,802.397 L 1234.61,795.714 L 1247.19,775.299 L 1262.84,757.955 L 1281.56,743.684 L 1303.36,732.483 L 1317.18,726.754 L 1325.16,723.217 L 1327.86,721.94 L 1345.13,712.676 L 1347.83,711.057 L 1355.8,706.055 L 1413.54,763.796 L 1422.75,774.318 L 1429.32,784.839 L 1433.27,795.358 L 1434.58,805.879 L 1434.58,916.064 L 1433.38,926.111 L 1429.79,936.159 L 1423.79,946.204 L 1415.4,956.251 L 1413.55,956.665 L 1413.54,956.667 L 1404.82,959.012 L 1388.37,964.356 L 1377.87,968.402 L 1361.42,975.724 L 1355.65,978.461 L 1353.55,985.492 L 1349.14,1001.94 L 1346.7,1013.37 L 1344.1,1029.82 L 1342.99,1040.33 L 1342.33,1052.84 L 1343.79,1056.94 L 1347.69,1066.4 L 1355.2,1082.15 L 1358.98,1089.11 L 1367.81,1103.53 L 1371.5,1108.91 L 1381.6,1122.07 L 1385.37,1126.48 L 1396.69,1138.41 L 1397.32,1139.06 L 1401.91,1140.78 L 1418.35,1146.13 L 1422.4,1147.21 L 1438.85,1150.71 L 1442,1151.21 L 1458.45,1152.94 L 1461.18,1153.08 L 1477.62,1153.08 L 1480.34,1152.94 L 1496.79,1151.21 L 1499.94,1150.71 L 1516.39,1147.21 L 1520.44,1146.13 L 1536.89,1140.78 L 1542.39,1138.66 L 1547.38,1136.44 L 1555.27,1128.13 L 1559.37,1123.32 L 1569.47,1110.16 L 1573.47,1104.34 L 1582.31,1089.92 L 1586.36,1082.44 L 1593.87,1066.69 L 1598.02,1056.63 L 1604.11,1039.45 L 1608.24,1025.41 L 1612.75,1006.66 L 1615.51,992.856 L 1614.22,987.749 L 1609.81,971.304 L 1603.57,952.137 L 1600.66,944.565 L 1599.17,942.682 L 1595.22,937.528 L 1586.99,926.427 L 1584.78,923.498 L 1583.96,919.496 L 1580.88,899.426 L 1580.11,891.859 L 1579.11,873.014 L 1579.02,845.619 L 1579.26,835.219 L 1579.43,832.029 L 1573.22,805.039 L 1571.15,778.05 L 1571.15,746.568 L 1571.42,736.731 L 1659.13,736.731 L 1765.37,736.731 L 1837.84,736.731 L 1838.18,726.893 L 1838.18,695.412 L 1837.84,685.575 L 1838.18,675.735 L 1838.18,644.254 L 1837.84,634.416 L 1838.18,624.577 L 1838.18,593.095 L 1837.84,583.258 L 1838.18,573.421 L 1838.18,541.939 L 1836.04,517.017 L 1829.64,492.092 L 1802.9,499.527 L 1790.32,503.505 L 1778.8,507.653 L 1769.94,511.389 L 1765.37,513.64 L 1763.86,514.362 L 1756.29,517.838 L 1751.61,519.713 L 1744.05,522.298 L 1740.18,523.406 L 1732.62,525.161 L 1729.29,525.761 L 1721.72,526.724 L 1718.67,526.958 L 1711.1,527.148 L 1708.11,527.072 L 1700.55,526.498 L 1697.37,526.092 L 1689.81,524.735 L 1686.25,523.907 L 1678.69,521.744 L 1674.45,520.293 L 1666.89,517.271 L 1661.67,514.864 L 1659.13,513.536 L 1653.87,511.075 L 1647.56,508.429 L 1647.26,507.047 L 1645.71,499.483 L 1644.68,492.792 L 1643.91,485.227 L 1643.58,479.044 L 1643.49,451.649 L 1643.57,448.245 L 1643.95,440.682 L 1644.62,434.171 L 1645.78,426.607 L 1647.21,419.656 L 1649.17,412.093 L 1651.6,404.349 L 1654.41,396.784 L 1658.25,387.848 L 1661.96,380.284 L 1667.91,369.609 L 1672.62,362.044 L 1681.79,348.921 L 1687.65,341.356 L 1694.79,332.642 L 1694.79,315.2 L 1657.54,225.266 L 1655.63,220.956 L 1654.41,218.367 L 1650.41,210.888 L 1648.98,208.5 L 1644.66,202.025 L 1643.04,199.834 L 1638.39,194.166 L 1636.57,192.163 L 1634.07,189.534 L 1561.41,116.874 L 1521.4,100.3 L 1519.44,99.548 L 1516.75,98.5824 L 1513.24,97.5169 L 1510.54,96.8412 L 1507.32,96.1975 L 1504.62,95.7977 L 1501.58,95.4979 L 1498.89,95.3639 L 1497.38,95.3259 L 1239.5,95.3259 L 1238,95.3639 L 1235.3,95.4979 L 1232.26,95.7977 L 1229.56,96.1975 L 1226.34,96.8412 L 1223.64,97.5169 L 1220.14,98.5824 L 1217.44,99.548 L 1215.49,100.3 L 1099.54,148.325 L 1013.8,234.07 L 1012.15,239.007 L 1006.07,256.181 L 1005.72,257.139 L 1003.67,262.786 L 1002.67,265.455 L 1001.73,267.862 L 999.041,275.558 L 998.236,278.187 L 996.668,283.865 L 995.693,287.849 L 995.013,290.464 L 994.042,294.012 L 992.596,300.005 L 992.041,302.662 L 991.131,307.614 L 990.719,310.224 L 988.36,321.285 L 983.952,337.73 L 979.832,350.372 L 973.521,366.816 L 966.78,381.905 L 958.402,398.35 L 947.581,417.025 L 936.9,433.471 L 927.574,446.897 L 924.768,447.281 L 917.591,448.151 L 901.147,449.878 L 877.897,451.099 L 861.453,451.099 L 841.342,450.186 L 838.198,449.9 L 835.435,449.666 L 822.885,442.851 L 803.538,431.012 L 789.754,421.539 L 773.282,408.911 L 760.738,398.196 L 746.848,385.078 L 746.244,384.448 L 740.191,378.403 L 738.234,376.534 L 734.408,372.979 L 724.017,363.582 L 721.962,361.699 L 718.869,358.824 L 713.054,353.612 L 708.286,345.944 L 696.112,327.287 L 686.156,313.229 L 669.564,291.551 L 657.104,276.326 L 630.082,245.332 L 624.905,239.491 L 613.73,227.079 L 592.318,201.875 L 570.904,173.824 L 554.459,151.19 L 514.722,92.0315 L 490.047,52.5258 L 470.746,22.3877 L 456.173,0.166 z " style="fill-opacity:1.000000;fill:rgb(77,152,85);stroke:rgb(0,0,0);stroke-width:2"/></g>
<g fill-rule="evenodd"><path d="M 983.113,662.066 L 977.012,649.275 L 972.736,636.485 L 969.629,624.681 L 969.629,612.874 L 969.629,561.718 L 969.629,504.381 L 952.111,475.64 L 927.574,446.897 L 936.9,433.471 L 947.581,417.025 L 958.402,398.35 L 966.78,381.905 L 973.521,366.816 L 979.832,350.372 L 983.952,337.73 L 988.36,321.285 L 990.719,310.224 L 991.131,307.614 L 992.041,302.662 L 992.596,300.005 L 994.042,294.012 L 995.013,290.464 L 995.693,287.849 L 996.668,283.865 L 998.236,278.187 L 999.041,275.558 L 1001.73,267.862 L 1002.67,265.455 L 1003.67,262.786 L 1005.72,257.139 L 1006.07,256.181 L 1012.15,239.007 L 1013.8,234.07 L 1099.54,148.325 L 1215.49,100.3 L 1217.44,99.548 L 1220.14,98.5824 L 1223.64,97.5169 L 1226.34,96.8412 L 1229.56,96.1975 L 1232.26,95.7977 L 1235.3,95.4979 L 1238,95.3639 L 1239.5,95.3259 L 1497.38,95.3259 L 1498.89,95.3639 L 1501.58,95.4979 L 1504.62,95.7977 L 1507.32,96.1975 L 1510.54,96.8412 L 1513.24,97.5169 L 1516.75,98.5824 L 1519.44,99.548 L 1521.4,100.3 L 1561.41,116.874 L 1634.07,189.534 L 1636.57,192.163 L 1638.39,194.166 L 1643.04,199.834 L 1644.66,202.025 L 1648.98,208.5 L 1650.41,210.888 L 1654.41,218.367 L 1655.63,220.956 L 1657.54,225.266 L 1694.79,315.2 L 1694.79,332.642 L 1687.65,341.356 L 1681.79,348.921 L 1672.62,362.044 L 1667.91,369.609 L 1661.96,380.284 L 1658.25,387.848 L 1654.41,396.784 L 1651.6,404.349 L 1649.17,412.093 L 1647.21,419.656 L 1645.78,426.607 L 1644.62,434.171 L 1643.95,440.682 L 1643.57,448.245 L 1643.49,451.649 L 1643.58,479.044 L 1643.91,485.227 L 1644.68,492.792 L 1645.71,499.483 L 1647.26,507.047 L 1647.56,508.429 L 1653.87,511.075 L 1659.13,513.536 L 1661.67,514.864 L 1666.89,517.271 L 1674.45,520.293 L 1678.69,521.744 L 1686.25,523.907 L 1689.81,524.735 L 1697.37,526.092 L 1700.55,526.498 L 1708.11,527.072 L 1711.1,527.148 L 1718.67,526.958 L 1721.72,526.724 L 1729.29,525.761 L 1732.62,525.161 L 1740.18,523.406 L 1744.05,522.298 L 1751.61,519.713 L 1756.29,517.838 L 1763.86,514.362 L 1765.37,513.64 L 1769.94,511.389 L 1778.8,507.653 L 1790.32,503.505 L 1802.9,499.527 L 1829.64,492.092 L 1836.04,517.017 L 1838.18,541.939 L 1838.18,573.421 L 1837.84,583.258 L 1765.37,583.258 L 1659.13,583.258 L 1652.6,583.258 L 1645.04,586.858 L 1637.48,593.095 L 1606,624.577 L 1596.94,634.416 L 1593.91,637.069 L 1586.84,643.4 L 1585.89,644.256 L 1583.86,646.093 L 1571.15,656.848 L 1571.15,675.735 L 1571.42,685.575 L 1571.15,695.412 L 1571.15,726.893 L 1571.42,736.731 L 1571.15,746.568 L 1571.15,778.05 L 1573.22,805.039 L 1579.43,832.029 L 1579.26,835.219 L 1579.02,845.619 L 1579.11,873.014 L 1580.11,891.859 L 1580.88,899.426 L 1583.96,919.496 L 1584.78,923.498 L 1586.99,926.427 L 1595.22,937.528 L 1599.17,942.682 L 1600.66,944.565 L 1603.57,952.137 L 1609.81,971.304 L 1614.22,987.749 L 1615.51,992.856 L 1612.75,1006.66 L 1608.24,1025.41 L 1604.11,1039.45 L 1598.02,1056.63 L 1593.87,1066.69 L 1586.36,1082.44 L 1582.31,1089.92 L 1573.47,1104.34 L 1569.47,1110.16 L 1559.37,1123.32 L 1555.27,1128.13 L 1547.38,1136.44 L 1542.39,1138.66 L 1536.89,1140.78 L 1520.44,1146.13 L 1516.39,1147.21 L 1499.94,1150.71 L 1496.79,1151.21 L 1480.34,1152.94 L 1477.62,1153.08 L 1461.18,1153.08 L 1458.45,1152.94 L 1442,1151.21 L 1438.85,1150.71 L 1422.4,1147.21 L 1418.35,1146.13 L 1401.91,1140.78 L 1397.32,1139.06 L 1396.69,1138.41 L 1385.37,1126.48 L 1381.6,1122.07 L 1371.5,1108.91 L 1367.81,1103.53 L 1358.98,1089.11 L 1355.2,1082.15 L 1347.69,1066.4 L 1343.79,1056.94 L 1342.33,1052.84 L 1342.99,1040.33 L 1344.1,1029.82 L 1346.7,1013.37 L 1349.14,1001.94 L 1353.55,985.492 L 1355.65,978.461 L 1361.42,975.724 L 1377.87,968.402 L 1388.37,964.356 L 1404.82,959.012 L 1413.54,956.667 L 1413.55,956.665 L 1415.4,956.251 L 1423.79,946.204 L 1429.79,936.159 L 1433.38,926.111 L 1434.58,916.064 L 1434.58,805.879 L 1433.27,795.358 L 1429.32,784.839 L 1422.75,774.318 L 1413.54,763.796 L 1355.8,706.055 L 1357.82,694.734 L 1358.22,692.036 L 1360.08,673.156 L 1360.22,670.454 L 1360.45,661.064 L 1360.45,623.533 L 1356.13,613.102 L 1352.69,609.666 L 1337.64,593.037 L 1328.31,581.519 L 1319.4,569.298 L 1311.92,557.782 L 1306.61,548.608 L 1300.74,537.091 L 1297.58,530.011 L 1293.16,518.494 L 1291.32,512.863 L 1288.23,501.346 L 1287.23,496.646 L 1285.41,485.129 L 1284.97,480.969 L 1284.37,469.453 L 1284.37,465.457 L 1284.97,453.94 L 1285.41,449.78 L 1287.23,438.263 L 1288.23,433.563 L 1291.32,422.047 L 1293.16,416.415 L 1297.58,404.899 L 1300.74,397.818 L 1303.36,392.68 L 1308.22,388.524 L 1314.76,383.508 L 1324.42,376.874 L 1332.28,372.06 L 1342.84,366.326 L 1352.69,361.641 L 1364.21,356.871 L 1369.4,354.854 L 1375.32,358.018 L 1375.77,358.274 L 1385.77,363.354 L 1386.4,363.634 L 1396.16,368.601 L 1400.48,371.096 L 1406.28,374.197 L 1409.79,375.926 L 1415.58,379.021 L 1424.19,383.996 L 1425.61,384.8 L 1433.96,389.444 L 1435.51,390.323 L 1445.43,396.053 L 1449.28,396.456 L 1461.18,397.082 L 1477.62,397.082 L 1489.51,396.456 L 1503.68,394.969 L 1505.96,394.751 L 1509.54,394.445 L 1512.28,394.18 L 1518.81,393.472 L 1521.85,393.178 L 1530.65,379.624 L 1536.8,369.011 L 1545.18,352.565 L 1548.69,344.71 L 1555,328.266 L 1556.95,322.297 L 1561.36,305.85 L 1562.37,301.103 L 1564.97,284.658 L 1565.4,280.608 L 1566.26,264.164 L 1566.26,260.336 L 1565.4,243.891 L 1564.97,239.841 L 1564.86,239.135 L 1556.41,225.334 L 1554.52,222.595 L 1544.42,209.435 L 1542.65,207.356 L 1531.33,195.424 L 1529.42,193.618 L 1516.88,182.903 L 1514.53,181.1 L 1500.74,171.627 L 1497.49,169.634 L 1482.42,161.451 L 1482.07,161.267 L 1477.62,161.052 L 1461.18,161.052 L 1456.35,161.305 L 1439.9,163.033 L 1434.6,163.876 L 1418.15,167.371 L 1411.85,169.064 L 1395.41,174.409 L 1387.51,177.452 L 1371.06,184.773 L 1360.77,190.034 L 1354.9,193.421 L 1352.3,193.548 L 1341.34,194.632 L 1338.64,195.034 L 1327.25,197.307 L 1324.54,197.982 L 1312.49,201.649 L 1309.79,202.612 L 1303.31,205.115 L 1277.42,215.84 L 1186.78,306.48 L 1181.49,312.036 L 1179.67,314.041 L 1169.82,326.051 L 1168.2,328.244 L 1159.17,341.778 L 1157.74,344.165 L 1155.16,348.607 L 1154.18,360.277 L 1154.05,362.976 L 1153.85,371.198 L 1153.85,499.217 L 1159.96,514.842 L 1164.33,530.468 L 1166.95,546.093 L 1167.82,561.718 L 1167.82,612.874 L 1167.19,626.142 L 1156.35,643.464 L 1143.33,658.611 L 1133.98,662.066 L 1097.92,662.066 L 1014.49,662.066 L 983.113,662.066 z " style="fill-opacity:1.000000;fill:rgb(140,226,179);stroke:rgb(0,0,0);stroke-width:2"/></g>
<g fill-rule="evenodd"><path d="M 391.157,1257.11 L 381.152,1250.54 L 374.581,1240.54 L 309.381,1083.13 L 300.641,1056.67 L 295.037,1027.08 L 302.682,1003.68 L 312.967,980.278 L 325.893,956.879 L 341.458,933.478 L 374.333,929.919 L 391.157,940.449 L 401.114,946.44 L 412.631,953.089 L 438.385,966.257 L 449.902,971.384 L 467.745,978.475 L 473.781,978.069 L 488.878,976.88 L 510.799,974.041 L 524.543,971.494 L 540.096,967.79 L 552.662,964.068 L 564.057,960.05 L 575.571,955.28 L 584.221,951.164 L 594.779,945.432 L 601.613,941.248 L 611.267,934.613 L 616.904,930.291 L 625.688,922.789 L 630.586,918.143 L 638.516,909.785 L 642.97,904.567 L 650.043,895.351 L 654.283,889.174 L 660.472,879.073 L 664.612,871.437 L 669.872,860.41 L 673.958,850.514 L 678.216,838.486 L 678.978,836.269 L 704.5,810.747 L 708.494,806.944 L 710.497,805.131 L 719.095,798.079 L 721.286,796.451 L 731.063,789.924 L 733.45,788.495 L 744.713,782.484 L 747.306,781.256 L 753.729,778.412 L 768.226,772.406 L 771.967,762.411 L 784.131,733.047 L 805.923,711.255 L 820.892,699.448 L 841.342,699.448 L 924.768,699.448 L 969.627,699.448 L 969.629,711.255 L 969.629,762.411 L 969.629,819.75 L 974.843,829.602 L 979.51,837.78 L 981.188,840.661 L 993.692,861.761 L 995.767,865.211 L 1014.49,895.885 L 1016.71,899.554 L 1018.16,901.976 L 1016.14,902.31 L 992.956,906.19 L 980.78,907.996 L 977.1,908.467 L 970.401,909.251 L 963.428,909.983 L 945.132,912.613 L 925.511,916.25 L 912.002,919.298 L 908.163,920.33 L 904.667,921.227 L 901.754,921.935 L 890.534,924.184 L 888.66,924.476 L 885.852,924.95 L 877.897,926.379 L 874.411,926.951 L 871.712,927.351 L 861.453,928.396 L 860.767,928.434 L 858.075,928.616 L 852.683,929.046 L 849.902,929.304 L 833.458,931.031 L 821.282,932.964 L 804.835,936.46 L 791.344,940.087 L 787.439,941.356 L 777.874,949.526 L 767.796,959.086 L 756.474,971.018 L 747.324,981.737 L 737.225,994.895 L 728.635,1007.41 L 722.643,1017.19 L 708.16,1020.76 L 690.21,1026.08 L 677.992,1030.39 L 661.542,1037.2 L 652.592,1041.46 L 637.513,1049.65 L 630.686,1053.82 L 616.892,1063.3 L 611.403,1067.51 L 598.855,1078.23 L 594.159,1082.68 L 582.83,1094.62 L 580.111,1097.68 L 579.396,1100.15 L 574.986,1116.61 L 573.834,1122.01 L 571.227,1138.47 L 570.734,1143.15 L 569.872,1159.6 L 569.872,1164.06 L 570.734,1180.52 L 571.227,1185.2 L 573.834,1201.65 L 574.986,1207.06 L 579.396,1223.51 L 581.569,1230.18 L 585.545,1240.54 L 587.67,1246.82 L 590.609,1256.79 L 595.076,1278.63 L 595.388,1281.05 L 571.975,1289.08 L 548.564,1291.75 L 474.788,1291.75 L 391.157,1257.11 z " style="fill-opacity:1.000000;fill:rgb(71,23,17);stroke:rgb(0,0,0);stroke-width:2"/></g>
<g fill-rule="evenodd"><path d="M 569.872,1164.06 L 569.872,1159.6 L 570.734,1143.15 L 571.227,1138.47 L 573.834,1122.01 L 574.986,1116.61 L 579.396,1100.15 L 580.111,1097.68 L 582.83,1094.62 L 594.159,1082.68 L 598.855,1078.23 L 611.403,1067.51 L 616.892,1063.3 L 630.686,1053.82 L 637.513,1049.65 L 652.592,1041.46 L 661.542,1037.2 L 677.992,1030.39 L 690.21,1026.08 L 708.16,1020.76 L 722.643,1017.19 L 728.635,1007.41 L 737.225,994.895 L 747.324,981.737 L 756.474,971.018 L 767.796,959.086 L 777.874,949.526 L 787.439,941.356 L 791.344,940.087 L 804.835,936.46 L 821.282,932.964 L 833.458,931.031 L 849.902,929.304 L 852.683,929.046 L 858.075,928.616 L 860.767,928.434 L 861.453,928.396 L 871.712,927.351 L 874.411,926.951 L 877.897,926.379 L 885.852,924.95 L 888.66,924.476 L 890.534,924.184 L 901.754,921.935 L 904.667,921.227 L 908.163,920.33 L 912.002,919.298 L 925.511,916.25 L 945.132,912.613 L 963.428,909.983 L 970.401,909.251 L 977.1,908.467 L 980.78,907.996 L 992.956,906.19 L 1016.14,902.31 L 1018.16,901.976 L 1029.62,906.806 L 1046.06,914.127 L 1057.88,919.668 L 1055.41,945.132 L 1052.71,965.685 L 1047.23,995.543 L 1042.73,1014.3 L 1036.31,1036.1 L 1030.23,1053.27 L 1023.41,1069.77 L 1015.9,1085.52 L 1008.89,1098.47 L 1000.05,1112.88 L 992.784,1123.47 L 982.685,1136.63 L 974.991,1145.64 L 963.668,1157.57 L 955.204,1165.6 L 942.661,1176.32 L 932.942,1183.77 L 919.156,1193.24 L 907.514,1200.37 L 892.443,1208.55 L 877.895,1215.47 L 861.451,1222.28 L 848.353,1227.13 L 841.684,1233.8 L 835.399,1239.79 L 833.394,1241.6 L 819.802,1252.75 L 819.648,1252.86 L 817.138,1253.49 L 806.295,1255.85 L 793.489,1262.16 L 777.036,1269.49 L 762.285,1275.17 L 745.833,1280.52 L 733.133,1283.93 L 716.676,1287.43 L 705.255,1289.24 L 688.805,1290.97 L 677.994,1291.54 L 661.542,1291.54 L 650.729,1290.97 L 634.278,1289.24 L 622.854,1287.43 L 606.401,1283.93 L 595.388,1281.05 L 595.076,1278.63 L 590.609,1256.79 L 587.67,1246.82 L 585.545,1240.54 L 581.569,1230.18 L 579.396,1223.51 L 574.986,1207.06 L 573.834,1201.65 L 571.227,1185.2 L 570.734,1180.52 L 569.872,1164.06 z " style="fill-opacity:1.000000;fill:rgb(152,84,47);stroke:rgb(0,0,0);stroke-width:2"/></g>
<g fill-rule="evenodd"><path d="M 0,393.684 L 393.518,0.166 L 456.171,0.166 L 470.746,22.3877 L 490.047,52.5258 L 514.722,92.0315 L 554.459,151.19 L 570.904,173.824 L 592.318,201.875 L 613.73,227.079 L 624.905,239.491 L 630.082,245.332 L 657.104,276.326 L 669.564,291.551 L 686.156,313.229 L 696.112,327.287 L 708.286,345.944 L 713.054,353.612 L 718.869,358.824 L 721.962,361.699 L 724.017,363.582 L 734.408,372.979 L 738.234,376.534 L 740.191,378.403 L 746.244,384.448 L 746.848,385.078 L 760.738,398.196 L 773.282,408.911 L 789.754,421.539 L 803.538,431.012 L 822.885,442.851 L 835.435,449.666 L 838.198,449.9 L 841.342,450.186 L 861.453,451.099 L 877.897,451.099 L 901.147,449.878 L 917.591,448.151 L 924.768,447.281 L 927.574,446.897 L 952.111,475.64 L 969.629,504.381 L 969.629,561.718 L 969.629,612.874 L 969.629,624.681 L 924.768,624.681 L 841.342,624.681 L 820.892,624.681 L 794.906,624.681 L 792.591,624.625 L 789.892,624.491 L 785.178,624.027 L 782.478,623.627 L 777.536,622.642 L 774.835,621.964 L 769.538,620.353 L 766.839,619.389 L 763.934,618.268 L 754.729,614.454 L 751.248,613.114 L 748.433,612.107 L 740.227,609.63 L 737.175,608.866 L 726.703,606.801 L 723.377,606.307 L 709.659,604.984 L 706.023,604.804 L 697.255,604.592 L 659.741,604.592 L 643.016,614.46 L 624.907,622.94 L 564.627,647.908 L 542.281,641.237 L 539.58,640.561 L 515.825,635.824 L 514.722,635.66 L 513.126,635.418 L 490.389,631.889 L 487.72,631.46 L 476.156,629.529 L 446.589,622.7 L 417.023,612.087 L 386.121,612.087 L 356.135,642.073 L 339.377,657.508 L 322.621,670.298 L 305.864,680.443 L 289.108,687.944 L 280.62,686.62 L 260.431,681.788 L 251.993,678.924 L 249.962,678.204 L 235.793,672.956 L 229.742,671.051 L 213.563,666.863 L 208.649,665.85 L 192.469,663.371 L 188.205,662.937 L 172.026,662.115 L 168.982,662.077 L 160.882,662.283 L 157.803,662.479 L 141.622,664.125 L 137.091,664.82 L 120.91,668.147 L 115.495,669.552 L 99.318,674.628 L 92.4812,677.167 L 90.0363,678.216 L 75.1812,683.044 L 63.1388,685.882 L 38.794,689.775 L 6.61694,692.879 L 0,693.263 L 0,393.684 z " style="fill-opacity:1.000000;fill:rgb(17,45,5);stroke:rgb(0,0,0);stroke-width:2"/></g>
<g fill-rule="evenodd"><path d="M 995.767,865.211 L 993.692,861.761 L 981.188,840.661 L 979.51,837.78 L 974.843,829.602 L 969.629,819.75 L 969.629,762.411 L 969.629,711.255 L 969.627,699.448 L 972.736,687.642 L 977.012,674.854 L 983.113,662.066 L 1014.49,662.066 L 1097.92,662.066 L 1133.98,662.066 L 1143.33,658.611 L 1156.35,643.464 L 1167.19,626.142 L 1167.82,612.874 L 1167.82,561.718 L 1166.95,546.093 L 1164.33,530.468 L 1159.96,514.842 L 1153.85,499.217 L 1153.85,371.198 L 1154.05,362.976 L 1154.18,360.277 L 1155.16,348.607 L 1157.74,344.165 L 1159.17,341.778 L 1168.2,328.244 L 1169.82,326.051 L 1179.67,314.041 L 1181.49,312.036 L 1186.78,306.48 L 1277.42,215.84 L 1303.31,205.115 L 1309.79,202.612 L 1312.49,201.649 L 1324.54,197.982 L 1327.25,197.307 L 1338.64,195.034 L 1341.34,194.632 L 1352.3,193.548 L 1354.9,193.421 L 1360.77,190.034 L 1371.06,184.773 L 1387.51,177.452 L 1395.41,174.409 L 1411.85,169.064 L 1418.15,167.371 L 1434.6,163.876 L 1439.9,163.033 L 1456.35,161.305 L 1461.18,161.052 L 1477.62,161.052 L 1482.07,161.267 L 1482.42,161.451 L 1497.49,169.634 L 1500.74,171.627 L 1514.53,181.1 L 1516.88,182.903 L 1529.42,193.618 L 1531.33,195.424 L 1542.65,207.356 L 1544.42,209.435 L 1554.52,222.595 L 1556.41,225.334 L 1564.86,239.135 L 1564.97,239.841 L 1565.4,243.891 L 1566.26,260.336 L 1566.26,264.164 L 1565.4,280.608 L 1564.97,284.658 L 1562.37,301.103 L 1561.36,305.85 L 1556.95,322.297 L 1555,328.266 L 1548.69,344.71 L 1545.18,352.565 L 1536.8,369.011 L 1530.65,379.624 L 1521.85,393.178 L 1518.81,393.472 L 1512.28,394.18 L 1509.54,394.445 L 1505.96,394.751 L 1503.68,394.969 L 1489.51,396.456 L 1477.62,397.082 L 1461.18,397.082 L 1449.28,396.456 L 1445.43,396.053 L 1435.51,390.323 L 1433.96,389.444 L 1425.61,384.8 L 1424.19,383.996 L 1415.58,379.021 L 1409.79,375.926 L 1406.28,374.197 L 1400.48,371.096 L 1396.16,368.601 L 1386.4,363.634 L 1385.77,363.354 L 1375.77,358.274 L 1375.32,358.018 L 1369.4,354.854 L 1364.21,356.871 L 1352.69,361.641 L 1342.84,366.326 L 1332.28,372.06 L 1324.42,376.874 L 1314.76,383.508 L 1308.22,388.524 L 1303.36,392.68 L 1300.74,397.818 L 1297.58,404.899 L 1293.16,416.415 L 1291.32,422.047 L 1288.23,433.563 L 1287.23,438.263 L 1285.41,449.78 L 1284.97,453.94 L 1284.37,465.457 L 1284.37,469.453 L 1284.97,480.969 L 1285.41,485.129 L 1287.23,496.646 L 1288.23,501.346 L 1291.32,512.863 L 1293.16,518.494 L 1297.58,530.011 L 1300.74,537.091 L 1306.61,548.608 L 1311.92,557.782 L 1319.4,569.298 L 1328.31,581.519 L 1337.64,593.037 L 1352.69,609.666 L 1356.13,613.102 L 1360.45,623.533 L 1360.45,661.064 L 1360.22,670.454 L 1360.08,673.156 L 1358.22,692.036 L 1357.82,694.734 L 1355.8,706.055 L 1347.83,711.057 L 1345.13,712.676 L 1327.86,721.94 L 1325.16,723.217 L 1317.18,726.754 L 1303.36,732.483 L 1281.56,743.684 L 1262.84,757.955 L 1247.19,775.299 L 1234.61,795.714 L 1231.25,802.397 L 1229.94,805.059 L 1229.54,805.879 L 1221.8,820.23 L 1220.18,822.931 L 1208.53,840.301 L 1206.53,843 L 1198.56,853.181 L 1188.99,857.985 L 1186.4,859.21 L 1175.73,863.938 L 1150.66,874.323 L 1125.51,889.926 L 1097.92,903.086 L 1057.88,919.668 L 1046.06,914.127 L 1029.62,906.806 L 1018.16,901.976 L 1016.71,899.554 L 1014.49,895.885 L 995.767,865.211 z " style="fill-opacity:1.000000;fill:rgb(88,245,107);stroke:rgb(0,0,0);stroke-width:2"/></g>
</svg>
