<?xml version="1.0" standalone="no"?>
<!DOCTYPE svg PUBLIC "-//W3C//DTD SVG 1.1//EN"
"http://www.w3.org/Graphics/SVG/1.1/DTD/svg11.dtd">
<svg width="2125" height="1417" viewBox="0 0 2125 1417" version="1.1"
xmlns="http://www.w3.org/2000/svg"
xmlns:xlink="http://www.w3.org/1999/xlink">
<g fill-rule="evenodd"><path d="M 1659.13,624.577 L 1659.13,593.095 L 1765.37,593.095 L 1765.37,624.577 L 1659.13,624.577 z " style="fill-opacity:1.000000;fill:rgb(167,241,217);stroke:rgb(0,0,0);stroke-width:2"/></g>
<g fill-rule="evenodd"><path d="M 1659.13,675.735 L 1659.13,644.254 L 1765.37,644.254 L 1765.37,675.735 L 1659.13,675.735 z " style="fill-opacity:1.000000;fill:rgb(42,130,200);stroke:rgb(0,0,0);stroke-width:2"/></g>
<g fill-rule="evenodd"><path d="M 1659.13,726.893 L 1659.13,695.412 L 1765.37,695.412 L 1765.37,726.893 L 1659.13,726.893 z " style="fill-opacity:1.000000;fill:rgb(216,254,67);stroke:rgb(0,0,0);stroke-width:2"/></g>
<g fill-rule="evenodd"><path d="M 934.071,217.327 L 941.538,230.253 L 946.62,245.894 L 948.339,262.249 L 946.62,278.603 L 941.538,294.244 L 933.314,308.485 L 922.311,320.706 L 909.007,330.373 L 893.982,337.062 L 877.897,340.48 L 861.453,340.48 L 845.369,337.062 L 830.346,330.373 L 817.04,320.706 L 806.037,308.485 L 797.813,294.244 L 792.731,278.603 L 791.012,262.249 L 792.731,245.894 L 797.813,230.253 L 806.037,216.012 L 817.04,203.792 L 830.344,194.124 L 845.369,187.435 L 861.453,184.017 L 877.897,184.017 L 893.982,187.435 L 909.005,194.124 L 914.401,198.044 L 1055.85,56.6019 L 1057.93,54.8907 L 1060.31,53.6172 L 1062.9,52.8336 L 1065.58,52.5677 L 1582.35,52.5677 L 1585.03,52.8336 L 1587.61,53.6172 L 1590,54.8907 L 1592.08,56.6019 L 1800.99,265.505 L 1802.7,267.592 L 1803.97,269.973 L 1804.75,272.558 L 1805.02,275.243 L 1805.02,370.76 L 1866.46,370.76 L 1867.78,367.202 L 1871.99,360.445 L 1877.48,354.674 L 1884.01,350.126 L 1891.33,346.985 L 1899.13,345.382 L 1946.39,345.18 L 1954.31,345.986 L 1961.91,348.371 L 1968.87,352.235 L 1974.91,357.421 L 1979.79,363.718 L 1983.29,370.866 L 1985.29,378.575 L 1985.69,386.525 L 1984.49,394.395 L 1981.72,401.862 L 1977.51,408.619 L 1972.02,414.39 L 1965.49,418.938 L 1958.17,422.079 L 1950.37,423.682 L 1938.52,423.732 L 1938.52,896.139 L 1946.39,896.105 L 1954.31,896.911 L 1961.91,899.296 L 1968.87,903.16 L 1974.91,908.345 L 1979.79,914.643 L 1983.29,921.791 L 1985.29,929.5 L 1985.69,937.45 L 1984.49,945.32 L 1981.72,952.787 L 1977.51,959.544 L 1972.02,965.315 L 1965.49,969.863 L 1958.17,973.004 L 1950.37,974.607 L 1903.11,974.809 L 1895.19,974.003 L 1887.59,971.618 L 1880.63,967.754 L 1874.59,962.568 L 1869.71,956.271 L 1866.26,949.229 L 1790.95,949.229 L 1788.27,948.965 L 1785.68,948.181 L 1783.3,946.908 L 1781.22,945.196 L 1734.44,898.416 L 1732.02,900.283 L 1726.02,903.226 L 1726.02,1032.93 L 1725.76,1035.62 L 1724.97,1038.2 L 1723.7,1040.58 L 1721.99,1042.67 L 1575.09,1189.56 L 1573,1191.28 L 1570.62,1192.55 L 1568.04,1193.33 L 1565.35,1193.6 L 1380.44,1193.6 L 1377.75,1193.33 L 1375.17,1192.55 L 1372.79,1191.27 L 1370.7,1189.56 L 1269.75,1088.61 L 1268.03,1086.52 L 1266.76,1084.14 L 1265.98,1081.56 L 1265.71,1078.87 L 1265.71,973.183 L 872.416,1366.48 L 870.327,1368.19 L 867.946,1369.47 L 865.363,1370.25 L 862.679,1370.51 L 447.871,1370.51 L 445.184,1370.25 L 442.599,1369.47 L 440.218,1368.19 L 438.131,1366.48 L 160.26,1088.61 L 158.549,1086.52 L 157.275,1084.14 L 156.492,1081.56 L 156.228,1078.87 L 156.228,840.581 L 153.905,840.343 L 138.466,835.499 L 124.32,827.647 L 112.044,817.108 L 102.141,804.314 L 95.014,789.788 L 90.9599,774.126 L 90.1403,757.969 L 92.5891,741.974 L 98.2085,726.804 L 106.767,713.072 L 117.915,701.345 L 131.193,692.104 L 146.062,685.723 L 161.911,682.466 L 169.999,682.054 L 186.094,683.691 L 201.533,688.535 L 215.678,696.388 L 227.954,706.927 L 237.858,719.721 L 244.985,734.246 L 248.607,748.246 L 476.156,748.246 L 478.84,748.511 L 481.425,749.295 L 483.806,750.569 L 485.893,752.28 L 541.869,808.258 L 552.79,803.28 L 564.057,800.885 L 575.571,800.885 L 586.838,803.28 L 591.816,805.497 L 744.989,652.326 L 747.076,650.615 L 749.457,649.341 L 752.04,648.558 L 754.729,648.292 L 841.342,648.292 L 841.342,636.485 L 924.768,636.485 L 924.768,687.642 L 841.342,687.642 L 841.342,675.835 L 760.434,675.835 L 613.714,822.553 L 620.143,833.268 L 623.701,844.223 L 624.907,855.676 L 623.701,867.129 L 620.143,878.083 L 614.384,888.057 L 606.677,896.617 L 597.359,903.386 L 586.838,908.072 L 575.571,910.466 L 564.057,910.466 L 552.79,908.072 L 542.269,903.386 L 532.951,896.617 L 525.245,888.057 L 519.485,878.083 L 515.927,867.129 L 514.722,855.676 L 515.927,844.223 L 519.485,833.268 L 522.574,827.917 L 470.448,775.789 L 248.371,775.789 L 247.409,782.06 L 241.79,797.231 L 233.232,810.963 L 222.083,822.689 L 208.805,831.931 L 193.936,838.312 L 183.771,840.399 L 183.771,1073.17 L 453.574,1342.97 L 856.973,1342.97 L 1303.36,896.587 L 1303.36,805.879 L 1413.54,805.879 L 1413.54,916.064 L 1322.83,916.064 L 1293.26,945.64 L 1293.26,1073.17 L 1386.14,1166.05 L 1559.65,1166.05 L 1698.48,1027.22 L 1698.48,903.118 L 1695.79,902.12 L 1689.37,898.12 L 1683.89,892.909 L 1679.57,886.701 L 1676.58,879.751 L 1675.06,872.34 L 1674.87,844.947 L 1675.63,837.422 L 1677.9,830.206 L 1681.57,823.593 L 1686.5,817.853 L 1692.48,813.224 L 1698.48,810.281 L 1698.48,778.05 L 1659.13,778.05 L 1659.13,746.568 L 1765.37,746.568 L 1765.37,778.05 L 1726.02,778.05 L 1726.02,810.389 L 1728.71,811.386 L 1735.13,815.387 L 1740.61,820.598 L 1744.94,826.805 L 1747.92,833.756 L 1749.44,841.167 L 1749.63,868.56 L 1749.07,874.097 L 1796.66,921.685 L 1866.46,921.685 L 1867.78,918.127 L 1871.99,911.37 L 1877.48,905.599 L 1884.01,901.051 L 1891.33,897.91 L 1899.13,896.307 L 1910.98,896.257 L 1910.98,423.85 L 1903.11,423.884 L 1895.19,423.078 L 1887.59,420.693 L 1880.63,416.829 L 1874.59,411.643 L 1869.71,405.346 L 1866.26,398.304 L 1796.66,398.304 L 1749.08,445.884 L 1749.44,447.649 L 1749.63,475.042 L 1748.87,482.567 L 1746.6,489.783 L 1742.93,496.396 L 1738.01,502.136 L 1732.02,506.765 L 1725.23,510.096 L 1717.91,511.993 L 1710.36,512.375 L 1702.88,511.231 L 1695.79,508.603 L 1689.37,504.602 L 1683.89,499.391 L 1679.57,493.184 L 1676.58,486.233 L 1675.06,478.822 L 1674.87,451.429 L 1675.63,443.905 L 1677.9,436.688 L 1681.57,430.075 L 1686.5,424.336 L 1692.48,419.706 L 1699.27,416.375 L 1706.59,414.478 L 1714.14,414.096 L 1721.62,415.24 L 1728.71,417.869 L 1734.52,421.487 L 1777.48,378.533 L 1777.48,280.95 L 1576.64,80.111 L 1071.29,80.111 L 934.071,217.327 z " style="fill-opacity:1.000000;fill:rgb(77,152,85);stroke:rgb(0,0,0);stroke-width:2"/></g>
<g fill-rule="evenodd"><path d="M 1069.97,561.718 L 1097.92,561.718 L 1097.92,612.874 L 1014.49,612.874 L 1014.49,561.718 L 1042.43,561.718 L 1042.43,307.614 L 1042.7,304.929 L 1043.48,302.346 L 1044.75,299.965 L 1046.46,297.876 L 1229.76,114.575 L 1231.85,112.864 L 1234.23,111.59 L 1236.82,110.807 L 1239.5,110.541 L 1497.38,110.541 L 1500.07,110.807 L 1502.65,111.59 L 1505.04,112.864 L 1507.12,114.575 L 1608.08,215.528 L 1609.79,217.615 L 1611.06,219.996 L 1611.84,222.581 L 1612.11,225.266 L 1612.11,543.908 L 1659.13,543.908 L 1659.13,541.939 L 1765.37,541.939 L 1765.37,573.421 L 1659.13,573.421 L 1659.13,571.451 L 1593.91,571.451 L 1591.22,571.188 L 1588.63,570.404 L 1586.25,569.131 L 1584.17,567.419 L 1497.97,481.225 L 1411.58,481.225 L 1408.78,489.861 L 1405.69,495.215 L 1479.14,568.665 L 1480.85,570.752 L 1482.12,573.133 L 1482.9,575.717 L 1483.17,578.402 L 1483.17,984.824 L 1493.7,987.065 L 1508.73,993.754 L 1522.03,1003.42 L 1533.04,1015.64 L 1541.26,1029.88 L 1546.34,1045.52 L 1548.06,1061.88 L 1546.34,1078.23 L 1541.26,1093.87 L 1533.04,1108.11 L 1522.03,1120.34 L 1508.73,1130 L 1493.7,1136.69 L 1477.62,1140.11 L 1461.18,1140.11 L 1445.09,1136.69 L 1430.07,1130 L 1416.76,1120.34 L 1405.76,1108.11 L 1397.53,1093.87 L 1392.45,1078.23 L 1390.73,1061.88 L 1392.45,1045.52 L 1397.53,1029.88 L 1405.76,1015.64 L 1416.76,1003.42 L 1430.07,993.754 L 1445.09,987.065 L 1455.63,984.826 L 1455.63,584.11 L 1386.39,514.874 L 1375.47,519.849 L 1364.21,522.244 L 1352.69,522.244 L 1341.42,519.849 L 1330.9,515.164 L 1321.59,508.395 L 1313.88,499.835 L 1308.12,489.861 L 1304.56,478.906 L 1303.36,467.454 L 1304.56,456.001 L 1308.12,445.046 L 1313.88,435.073 L 1321.59,426.513 L 1330.9,419.744 L 1341.42,415.058 L 1352.69,412.663 L 1364.21,412.663 L 1375.47,415.058 L 1385.99,419.744 L 1395.31,426.513 L 1403.02,435.073 L 1408.78,445.046 L 1411.58,453.682 L 1503.68,453.682 L 1506.36,453.948 L 1508.95,454.732 L 1511.33,456.005 L 1513.42,457.716 L 1584.57,528.865 L 1584.57,230.973 L 1491.68,138.084 L 1245.21,138.084 L 1069.97,313.319 L 1069.97,561.718 z " style="fill-opacity:1.000000;fill:rgb(140,226,179);stroke:rgb(0,0,0);stroke-width:2"/></g>
<g fill-rule="evenodd"><path d="M 511.095,1083.13 L 743.989,850.234 L 746.077,848.523 L 748.457,847.25 L 751.04,846.466 L 753.729,846.2 L 846.978,846.2 L 869.283,823.897 L 869.283,762.411 L 841.342,762.411 L 841.342,711.255 L 924.768,711.255 L 924.768,762.411 L 896.827,762.411 L 896.827,829.602 L 896.561,832.291 L 895.777,834.873 L 894.504,837.254 L 892.793,839.341 L 862.421,869.711 L 860.332,871.425 L 857.951,872.696 L 855.368,873.48 L 852.683,873.743 L 759.434,873.743 L 548.564,1084.61 L 548.564,1240.54 L 391.157,1240.54 L 391.157,1083.13 L 511.095,1083.13 z " style="fill-opacity:1.000000;fill:rgb(71,23,17);stroke:rgb(0,0,0);stroke-width:2"/></g>
<g fill-rule="evenodd"><path d="M 805.279,1106.8 L 797.813,1093.87 L 792.731,1078.23 L 791.012,1061.88 L 792.731,1045.52 L 797.813,1029.88 L 806.037,1015.64 L 817.04,1003.42 L 830.344,993.754 L 845.369,987.065 L 861.453,983.647 L 877.897,983.647 L 893.982,987.065 L 909.005,993.754 L 922.311,1003.42 L 933.314,1015.64 L 941.538,1029.88 L 946.62,1045.52 L 948.339,1061.88 L 946.62,1078.23 L 941.538,1093.87 L 933.314,1108.11 L 922.311,1120.34 L 909.007,1130 L 893.982,1136.69 L 877.897,1140.11 L 861.453,1140.11 L 845.369,1136.69 L 830.346,1130 L 824.95,1126.08 L 779.459,1171.57 L 777.37,1173.28 L 774.989,1174.56 L 772.406,1175.34 L 769.722,1175.6 L 747.024,1175.6 L 746.75,1178.19 L 741.667,1193.84 L 733.438,1208.09 L 722.429,1220.32 L 709.12,1229.99 L 694.087,1236.68 L 677.994,1240.1 L 661.542,1240.1 L 645.449,1236.68 L 630.418,1229.99 L 617.106,1220.32 L 606.097,1208.09 L 597.869,1193.84 L 592.786,1178.19 L 591.064,1161.83 L 592.786,1145.47 L 597.869,1129.82 L 606.097,1115.57 L 617.106,1103.35 L 630.416,1093.67 L 645.449,1086.98 L 661.542,1083.56 L 677.994,1083.56 L 694.087,1086.98 L 709.118,1093.67 L 722.429,1103.35 L 733.438,1115.57 L 741.667,1129.82 L 746.75,1145.47 L 747.022,1148.06 L 764.016,1148.06 L 805.279,1106.8 z " style="fill-opacity:1.000000;fill:rgb(152,84,47);stroke:rgb(0,0,0);stroke-width:2"/></g>
<g fill-rule="evenodd"><path d="M 514.722,448.384 L 514.722,407.064 L 624.907,407.064 L 624.907,448.384 L 669.768,448.384 L 672.453,448.65 L 675.037,449.434 L 677.418,450.707 L 679.505,452.419 L 800.609,573.525 L 841.342,573.525 L 841.342,561.718 L 924.768,561.718 L 924.768,612.874 L 841.342,612.874 L 841.342,601.068 L 794.906,601.068 L 792.219,600.804 L 789.634,600.02 L 787.253,598.747 L 785.166,597.036 L 664.061,475.928 L 624.907,475.928 L 624.907,517.249 L 514.722,517.249 L 514.722,475.928 L 275.658,475.928 L 249.962,501.624 L 249.962,642.073 L 90.0363,642.073 L 90.0363,482.147 L 230.485,482.147 L 260.214,452.419 L 262.301,450.707 L 264.681,449.434 L 267.264,448.65 L 269.953,448.384 L 514.722,448.384 z " style="fill-opacity:1.000000;fill:rgb(17,45,5);stroke:rgb(0,0,0);stroke-width:2"/></g>
<g fill-rule="evenodd"><path d="M 1097.92,750.605 L 1097.92,762.411 L 1014.49,762.411 L 1014.49,711.255 L 1097.92,711.255 L 1097.92,723.061 L 1170.02,723.061 L 1237.73,655.359 L 1237.73,371.198 L 1237.99,368.513 L 1238.77,365.931 L 1240.05,363.55 L 1241.76,361.461 L 1350.71,252.511 L 1352.8,250.8 L 1355.18,249.527 L 1357.76,248.743 L 1360.45,248.477 L 1392.18,248.477 L 1392.45,245.894 L 1397.53,230.253 L 1405.76,216.012 L 1416.76,203.792 L 1430.07,194.124 L 1445.09,187.435 L 1461.18,184.017 L 1477.62,184.017 L 1493.7,187.435 L 1508.73,194.124 L 1522.03,203.792 L 1533.04,216.012 L 1541.26,230.253 L 1546.34,245.894 L 1548.06,262.249 L 1546.34,278.603 L 1541.26,294.244 L 1533.04,308.485 L 1522.03,320.706 L 1508.73,330.373 L 1493.7,337.062 L 1477.62,340.48 L 1461.18,340.48 L 1445.09,337.062 L 1430.07,330.373 L 1416.76,320.706 L 1405.76,308.485 L 1397.53,294.244 L 1392.45,278.603 L 1392.18,276.02 L 1366.15,276.02 L 1265.27,376.904 L 1265.27,661.064 L 1265,663.753 L 1264.22,666.336 L 1262.95,668.716 L 1261.24,670.803 L 1185.47,746.572 L 1183.38,748.286 L 1181,749.557 L 1178.41,750.341 L 1175.73,750.605 L 1097.92,750.605 z " style="fill-opacity:1.000000;fill:rgb(88,245,107);stroke:rgb(0,0,0);stroke-width:2"/></g>
</svg>
