<?xml version="1.0" standalone="no"?>
<!DOCTYPE svg PUBLIC "-//W3C//DTD SVG 1.1//EN"
"http://www.w3.org/Graphics/SVG/1.1/DTD/svg11.dtd">
<svg width="2137" height="1429" viewBox="0 0 2137 1429" version="1.1"
xmlns="http://www.w3.org/2000/svg"
xmlns:xlink="http://www.w3.org/1999/xlink">
<g fill-rule="evenodd"><path d="M 399,0 L 1737,0 L 1739,0 L 1740,1 L 2135,395 L 2136,397 L 2137,399 L 2137,950 L 2136,952 L 2136,953 L 1663,1427 L 1662,1427 L 1659,1428 L 399,1428 L 397,1428 L 396,1427 L 1,1033 L 0,1031 L 0,1029 L 0,399 L 0,397 L 1,395 L 395,1 L 397,0 L 399,0M 401,1416 L 1656,1416 L 2125,948 L 2125,402 L 1735,12 L 401,12 L 11,402 L 11,1026 L 401,1416 z " style="fill-opacity:1.000000;fill:rgb(167,241,217);stroke:rgb(0,0,0);stroke-width:2"/></g>
</svg>
