<?xml version="1.0" standalone="no"?>
<!DOCTYPE svg PUBLIC "-//W3C//DTD SVG 1.1//EN"
"http://www.w3.org/Graphics/SVG/1.1/DTD/svg11.dtd">
<svg width="2204" height="1496" viewBox="0 0 2204 1496" version="1.1"
xmlns="http://www.w3.org/2000/svg"
xmlns:xlink="http://www.w3.org/1999/xlink">
<g fill-rule="evenodd"><path d="M 1771.07,0.213643 L 1778.75,0.971394 L 1786.13,3.21066 L 1792.94,6.84746 L 1798.9,11.7419 L 2192.47,405.313 L 2197.37,411.277 L 2201,418.08 L 2203.24,425.464 L 2204,433.141 L 2204,984.142 L 2203.24,991.822 L 2201,999.205 L 2197.37,1006.01 L 2192.47,1011.97 L 1720.18,1484.26 L 1714.22,1489.15 L 1707.42,1492.79 L 1700.03,1495.03 L 1692.36,1495.78 L 432.928,1495.78 L 425.248,1495.03 L 417.865,1492.79 L 411.061,1489.15 L 405.097,1484.26 L 11.5282,1090.69 L 6.63382,1084.72 L 2.99702,1077.92 L 0.757751,1070.54 L 8.52651e-14,1062.86 L 8.52651e-14,433.141 L 0.757751,425.464 L 2.99702,418.08 L 6.63382,411.277 L 11.5282,405.313 L 405.097,11.7419 L 411.061,6.84746 L 417.865,3.21066 L 425.248,0.971394 L 432.928,0.213643 L 1771.07,0.213643 z " style="fill-opacity:1.000000;fill:rgb(167,241,217);stroke:rgb(0,0,0);stroke-width:2"/></g>
</svg>
